#!OML:ASF F:\VICON\USERDATA\INSTALL\rory3\rory3.ASF
:FULLY-SPECIFIED
:DEGREES
221
root -0.509645 17.7024 17.0343 -159.928 -10.5872 -177.816
lowerback -1.73694 -0.386127 4.6009
upperback -4.64762 -0.711844 1.62939
thorax -3.85164 -0.605878 -0.873146
lowerneck -18.6602 0.0478413 -2.33175
upperneck 37.4454 -3.41417 2.20083
head 16.7626 -2.4957 0.403584
rclavicle 2.41026e-014 1.07344e-014
rhumerus -175.19 -32.1335 166.604
rradius 15.6006
rwrist 149.859
rhand -13.0134 8.77094
rfingers 7.12502
rthumb 13.0803 -20.7989
lclavicle 2.41026e-014 1.07344e-014
lhumerus 14.353 6.47474 27.4954
lradius 18.566
lwrist -37.4629
lhand -3.62316 28.0097
lfingers 7.12502
lthumb 22.1158 56.7649
rfemur -59.306 6.45049 18.1832
rtibia 38.8905
rfoot -28.0577 -33.2581
rtoes 51.5013
lfemur -21.405 -3.51245 -23.9685
ltibia 34.6478
lfoot -10.2839 17.2654
ltoes -28.4038
222
root -0.492751 17.5531 16.9091 -159.856 -9.85026 -178.153
lowerback -1.4488 -0.17433 3.95775
upperback -4.57636 -0.403587 1.49095
thorax -3.91815 -0.423535 -0.661625
lowerneck -18.6298 -0.0436226 -2.10099
upperneck 36.981 -3.44397 2.08294
head 16.506 -2.45422 0.319127
rclavicle 1.39149e-015 -6.36111e-015
rhumerus -175.072 -30.7778 167.913
rradius 15.6819
rwrist 145.828
rhand -13.025 9.19845
rfingers 7.12502
rthumb 13.0691 -20.3721
lclavicle 1.39149e-015 -6.36111e-015
lhumerus 13.8403 10.6415 28.0445
lradius 18.1786
lwrist -35.8223
lhand -3.964 29.1952
lfingers 7.12502
lthumb 21.7885 57.9887
rfemur -60.1245 7.24815 16.9711
rtibia 38.5865
rfoot -30.1569 -31.9428
rtoes 52.1747
lfemur -20.4051 -2.92907 -24.7763
ltibia 34.3874
lfoot -12.1358 17.6432
ltoes -30.4286
223
root -0.468557 17.4212 16.7673 -160.242 -9.81233 -178.733
lowerback -0.828687 -0.304396 3.15296
upperback -4.38467 -0.5283 1.40046
thorax -4.06526 -0.442306 -0.299803
lowerneck -18.4209 -0.0819808 -1.99543
upperneck 36.3923 -3.39889 2.1137
head 16.1505 -2.38228 0.339712
rclavicle 1.51076e-014 -9.14409e-015
rhumerus -174.851 -30.2244 169.023
rradius 15.1644
rwrist 140.318
rhand -12.9451 8.68366
rfingers 7.12502
rthumb 13.1461 -20.8819
lclavicle 1.51076e-014 -9.14409e-015
lhumerus 13.5944 16.6446 29.1214
lradius 17.135
lwrist -36.161
lhand -5.15567 28.8632
lfingers 7.12502
lthumb 20.6438 57.7854
rfemur -60.1723 8.97608 14.556
rtibia 38.2507
rfoot -37.2286 -27.0273
rtoes 55.6096
lfemur -18.9653 -2.59022 -25.5162
ltibia 34.1333
lfoot -13.6261 17.9304
ltoes -31.675
224
root -0.456228 17.2854 16.6367 -160.188 -9.23926 -179.375
lowerback -0.51693 -0.2442 2.27312
upperback -4.41844 -0.443177 1.19397
thorax -4.26718 -0.368039 -0.0205934
lowerneck -18.1112 -0.108955 -1.87373
upperneck 35.8737 -3.40718 2.19782
head 15.8162 -2.33618 0.36694
rclavicle 1.51573e-014 -1.90833e-014
rhumerus -174.47 -30.0455 169.883
rradius 14.5846
rwrist 134.192
rhand -13.5563 8.54076
rfingers 7.12502
rthumb 12.5569 -21.0619
lclavicle 1.51573e-014 -1.90833e-014
lhumerus 14.1261 24.8577 31.1447
lradius 15.7373
lwrist -38.1834
lhand -6.48828 28.318
lfingers 7.12502
lthumb 19.3629 57.374
rfemur -60.8041 9.68979 12.8139
rtibia 37.9087
rfoot -38.6489 -25.7896
rtoes 55.4964
lfemur -18.0563 -2.20213 -26.5253
ltibia 33.8547
lfoot -15.2909 18.5835
ltoes -32.5399
225
root -0.450856 17.151 16.4989 -160.252 -8.76307 -179.931
lowerback -0.261165 -0.236497 1.55407
upperback -4.32152 -0.428783 1.03164
thorax -4.30574 -0.328988 0.214433
lowerneck -18.1974 -0.0971339 -1.78843
upperneck 35.5491 -3.35322 2.30043
head 15.6763 -2.26092 0.413414
rclavicle 4.27387e-015 -6.75868e-015
rhumerus -174.396 -30.2544 170.544
rradius 14.3702
rwrist 127.305
rhand -14.1636 8.88846
rfingers 7.12502
rthumb 11.9713 -20.7492
lclavicle 4.27387e-015 -6.75868e-015
lhumerus 15.1116 32.3584 33.1739
lradius 15.0021
lwrist -37.5413
lhand -6.83039 29.8184
lfingers 7.12502
lthumb 19.0339 58.907
rfemur -61.2801 10.3364 11.1674
rtibia 37.6449
rfoot -38.9459 -25.6573
rtoes 54.4468
lfemur -16.9703 -1.89207 -27.4364
ltibia 33.5152
lfoot -16.9403 19.5029
ltoes -33.7579
226
root -0.445625 17.0315 16.3478 -160.615 -8.81124 -180.444
lowerback 0.13141 -0.452526 0.995687
upperback -4.0647 -0.698583 0.999497
thorax -4.25657 -0.430164 0.504347
lowerneck -18.3844 -0.0525762 -1.69673
upperneck 35.1646 -3.14438 2.21381
head 15.5227 -2.1373 0.407955
rclavicle 3.52843e-014 3.57812e-015
rhumerus -174.775 -30.557 171.237
rradius 14.2546
rwrist 119.804
rhand -14.9404 9.30648
rfingers 7.12502
rthumb 11.2223 -20.3734
lclavicle 3.52843e-014 3.57812e-015
lhumerus 15.1614 36.6984 33.8461
lradius 14.96
lwrist -33.3785
lhand -7.68803 32.4126
lfingers 7.12502
lthumb 18.209 61.5803
rfemur -61.1307 10.6123 9.90116
rtibia 37.3972
rfoot -39.8311 -24.2378
rtoes 54.155
lfemur -15.6111 -1.80843 -28.0944
ltibia 33.2744
lfoot -18.2797 20.2002
ltoes -36.3421
227
root -0.436211 16.9097 16.1916 -160.663 -8.49277 -181.15
lowerback 0.262759 -0.549524 0.143305
upperback -3.92868 -0.838632 0.828612
thorax -4.17984 -0.465659 0.810484
lowerneck -18.7028 -0.00163081 -1.64257
upperneck 34.9791 -3.00804 2.25552
head 15.504 -2.03952 0.445113
rclavicle 2.26615e-014 9.54166e-015
rhumerus -174.983 -31.6127 171.531
rradius 13.9931
rwrist 111.522
rhand -15.7951 9.73372
rfingers 7.12502
rthumb 10.3978 -19.9892
lclavicle 2.26615e-014 9.54166e-015
lhumerus 16.0322 42.6184 35.4511
lradius 14.5325
lwrist -32.0647
lhand -8.99193 33.5047
lfingers 7.12502
lthumb 16.9542 62.7848
rfemur -61.2678 10.0027 9.39143
rtibia 37.22
rfoot -38.2646 -24.2165
rtoes 53.2189
lfemur -14.6351 -1.75518 -29.0423
ltibia 33.1115
lfoot -19.6302 20.5905
ltoes -38.6366
228
root -0.42441 16.7926 16.0324 -160.811 -8.2806 -181.087
lowerback 0.638704 -0.548324 0.13149
upperback -4.08678 -0.841506 0.766685
thorax -4.55896 -0.468892 0.760899
lowerneck -18.5373 0.115169 -1.27903
upperneck 34.8379 -2.92235 2.18722
head 15.3885 -1.96551 0.370631
rclavicle -2.46493e-014 -6.36111e-015
rhumerus -174.894 -33.0004 171.463
rradius 13.7761
rwrist 103.727
rhand -17.0397 10.1098
rfingers 7.12502
rthumb 9.19702 -19.6696
lclavicle -2.46493e-014 -6.36111e-015
lhumerus 17.2515 48.6957 37.3897
lradius 14.1611
lwrist -32.435
lhand -9.3638 33.056
lfingers 7.12502
lthumb 16.5962 62.3664
rfemur -61.3935 8.95629 10.3718
rtibia 37.2678
rfoot -34.3134 -26.1253
rtoes 49.6527
lfemur -13.5487 -1.9448 -29.0967
ltibia 32.816
lfoot -21.1657 20.7137
ltoes -38.4015
229
root -0.425284 16.6907 15.8672 -160.859 -8.45704 -180.631
lowerback 0.869281 -0.60192 0.852267
upperback -4.29304 -0.897914 0.801993
thorax -4.91558 -0.529716 0.403196
lowerneck -18.3931 0.245171 -0.895448
upperneck 34.8552 -2.8536 2.08945
head 15.3548 -1.90951 0.273653
rclavicle -3.12589e-014 1.59028e-015
rhumerus -174.603 -34.939 171.102
rradius 13.3528
rwrist 95.7427
rhand -19.0081 9.58321
rfingers 7.12502
rthumb 7.29735 -20.271
lclavicle -3.12589e-014 1.59028e-015
lhumerus 17.5159 52.3693 38.1871
lradius 14.174
lwrist -30.7204
lhand -9.66163 33.1621
lfingers 7.12502
lthumb 16.3095 62.4962
rfemur -61.4659 7.20288 12.3047
rtibia 37.4225
rfoot -29.413 -27.1701
rtoes 45.8476
lfemur -12.5682 -2.20051 -28.5824
ltibia 32.5424
lfoot -22.0476 20.9662
ltoes -37.4089
230
root -0.41379 16.5909 15.6797 -160.158 -8.3188 -181.428
lowerback 0.401331 -0.693703 0.111208
upperback -4.61767 -1.0852 0.559479
thorax -4.97992 -0.610407 0.574011
lowerneck -18.4516 0.368321 -0.717408
upperneck 35.0028 -2.77174 2.09551
head 15.4363 -1.85976 0.255929
rclavicle -1.09332e-015 -1.98785e-015
rhumerus -174.605 -36.1111 170.782
rradius 13.2972
rwrist 88.8224
rhand -20.6947 10.264
rfingers 7.12502
rthumb 5.66909 -19.6402
lclavicle -1.09332e-015 -1.98785e-015
lhumerus 17.6361 55.525 38.9286
lradius 14.311
lwrist -28.4533
lhand -11.2427 34.2504
lfingers 7.12502
lthumb 14.7867 63.7029
rfemur -62.2568 5.61384 12.5353
rtibia 37.6962
rfoot -24.4673 -28.072
rtoes 42.2332
lfemur -11.8573 -3.45923 -29.1873
ltibia 32.3355
lfoot -26.9245 16.9932
ltoes -22.3385
231
root -0.402267 16.5172 15.4864 -159.53 -8.52562 -181.56
lowerback -0.00855683 -0.779073 0.175123
upperback -5.08557 -1.24732 0.491943
thorax -5.2389 -0.714964 0.47667
lowerneck -18.3221 0.495036 -0.562242
upperneck 35.2643 -2.73057 2.09815
head 15.5304 -1.84809 0.230306
rclavicle -1.7344e-014 -1.31198e-014
rhumerus -174.64 -36.791 170.358
rradius 13.62
rwrist 82.7615
rhand -21.9048 11.7568
rfingers 7.12502
rthumb 4.50066 -18.1754
lclavicle -1.7344e-014 -1.31198e-014
lhumerus 17.1548 57.6494 39.0978
lradius 14.4941
lwrist -26.2632
lhand -12.6605 35.2749
lfingers 7.12502
lthumb 13.4204 64.8226
rfemur -62.8415 4.73833 12.9566
rtibia 37.9771
rfoot -20.6878 -28.2604
rtoes 39.7488
lfemur -11.6125 -4.16036 -29.0359
ltibia 32.3673
lfoot -28.3326 15.7262
ltoes -17.8031
232
root -0.393091 16.4714 15.28 -159.002 -8.92204 -181.303
lowerback -0.455992 -0.939514 0.654177
upperback -5.18307 -1.46347 0.674855
thorax -5.09178 -0.847846 0.399554
lowerneck -19.6736 0.5298 -0.806989
upperneck 35.7997 -2.57321 2.11031
head 16.1167 -1.78391 0.298122
rclavicle 1.36167e-014 5.56597e-015
rhumerus -175.238 -36.4029 170.228
rradius 14.0408
rwrist 77.5012
rhand -23.1485 13.0608
rfingers 7.12502
rthumb 3.29972 -16.8934
lclavicle 1.36167e-014 5.56597e-015
lhumerus 16.7337 59.9363 39.5151
lradius 14.7517
lwrist -24.6705
lhand -13.0956 35.981
lfingers 7.12502
lthumb 13.001 65.5559
rfemur -63.1321 3.1317 14.7804
rtibia 38.3504
rfoot -14.4243 -28.4369
rtoes 34.2327
lfemur -11.6776 -4.4894 -28.4531
ltibia 32.5764
lfoot -27.1388 17.4741
ltoes -25.0826
